<?xml version="1.0" encoding="utf-8"?>
<!-- Generator: Adobe Illustrator 18.0.0, SVG Export Plug-In . SVG Version: 6.00 Build 0)  -->
<!DOCTYPE svg PUBLIC "-//W3C//DTD SVG 1.1//EN" "http://www.w3.org/Graphics/SVG/1.1/DTD/svg11.dtd">
<svg version="1.1" id="Layer_1" xmlns="http://www.w3.org/2000/svg" xmlns:xlink="http://www.w3.org/1999/xlink" x="0px" y="0px"
	 viewBox="0 0 1000 500" style="enable-background:new 0 0 1000 500;" xml:space="preserve">
<style type="text/css">
	.st0{fill:url(#SVGID_1_);}
	.st1{fill:#C2B59B;}
	.st2{fill:#9B8579;}
	.st3{fill:#E6E7E8;stroke:#E6E7E8;stroke-width:3;stroke-miterlimit:10;}
	.st4{fill:#BE1E2D;}
	.st5{fill:#F7C532;}
	.st6{fill:url(#SVGID_2_);stroke:#BCBEC0;stroke-width:10;stroke-miterlimit:10;}
	.st7{fill:#FFFFFF;}
	.st8{fill:#6D2725;}
	.st9{fill:#D5AB2C;}
	.st10{fill:#E3E3E3;}
	.st11{fill:none;stroke:#6D2725;stroke-width:9;stroke-linecap:round;stroke-linejoin:round;stroke-miterlimit:10;}
	.st12{fill:#269ED1;}
	.st13{fill:#F1F2F2;}
	.st14{fill:none;}
	.st15{font-family:'LucidaConsole';}
	.st16{font-size:23;}
</style>
<linearGradient id="SVGID_1_" gradientUnits="userSpaceOnUse" x1="-40.8292" y1="31.0258" x2="1028.5635" y2="31.0258">
	<stop  offset="0" style="stop-color:#1C75BC"/>
	<stop  offset="1" style="stop-color:#00AEEF"/>
</linearGradient>
<rect x="-40.829" y="-220.887" class="st0" width="1069.393" height="503.825"/>
<polygon class="st1" points="-83.194,275.787 1059.309,262.603 1081.779,656.781 1010.913,720.713 -34.797,712.278 "/>
<path class="st2" d="M606.081,397.842c0,24.52-154.317,34.636-321.563,34.636s-302.826-19.877-302.826-44.397
	c0-24.52,135.58-44.397,302.826-44.397S606.081,373.323,606.081,397.842z"/>
<path class="st3" d="M230.835,373.184c0,0-32.158-18.514-35.044-111.082c-1.954-62.678,30.8-121.574,67.992-156.273l16.985-13.955
	L12.895,173.649c0,0-50.38,47.313-44.209,80.226c6.171,32.913,8.228,88.454,61.712,127.538h243.418L230.835,373.184z"/>
<polygon id="stripe" class="st4" points="284.518,99.052 1.43,185.592 -23.124,205.724 266.814,117.209 "/>
<path class="st5" d="M282.215,281.83c0,0.001,2.134,13.038-2.925,20.994c-5.059,7.956-12.477,9.071-12.477,9.071l6.016,2.185
	c5.645-2.893,9.186-9.976,9.973-12.657C284.605,295.281,285.757,289.587,282.215,281.83z"/>
<polygon id="stripe" class="st4" points="-36.038,227.286 232.15,152.388 217.141,198.537 -41.281,244.606 "/>
<polygon id="stripe" class="st4" points="-41.281,267.487 219.974,220.477 219.974,272.094 -31.838,313.807 "/>
<path id="stripe" class="st4" d="M200.844,310.757L-5.983,341.79c6.826,11.467,15.834,22.651,27.907,32.93l199.16-11.483
	C214.538,354.339,206.172,338.309,200.844,310.757z"/>
<linearGradient id="SVGID_2_" gradientUnits="userSpaceOnUse" x1="434.9642" y1="206.785" x2="51.5201" y2="329.6692">
	<stop  offset="0" style="stop-color:#FFFFFF"/>
	<stop  offset="0.8253" style="stop-color:#BCBEC0"/>
</linearGradient>
<path class="st6" d="M225.733,375.215c0,0-32.158-18.514-35.044-111.082S260.618,91.765,311.636,81.479
	s172.501,17.572,165.246,205.281c0.968,94.625-132.953,111.082-132.953,111.082L225.733,375.215z"/>
<g>
	<g>
		<path class="st7" d="M212.6,386.778c-14.073,0-25.522-11.449-25.522-25.522c0-6.119,2.201-11.992,6.133-16.587
			c-3.48-5.31-5.367-11.566-5.367-17.963c0-18.059,14.691-32.75,32.75-32.75c9.68,0,18.792,4.274,24.985,11.58
			c2.619-0.982,5.41-1.492,8.223-1.492c12.913,0,23.419,10.506,23.419,23.419c0,7.539-3.577,14.482-9.53,18.857
			c0.97,2.933,1.46,5.993,1.46,9.137c0,16.092-13.092,29.184-29.184,29.184c-4.282,0-8.502-0.942-12.355-2.744
			C223.269,385.061,218.034,386.778,212.6,386.778z"/>
		<path class="st8" d="M220.594,297.956c9.868,0,18.572,4.973,23.749,12.548c2.799-1.565,6.024-2.46,9.459-2.46
			c10.725,0,19.419,8.694,19.419,19.419c0,7.5-4.255,14.003-10.48,17.238c1.543,3.262,2.41,6.907,2.41,10.756
			c0,13.909-11.275,25.184-25.184,25.184c-4.687,0-9.073-1.285-12.831-3.515c-3.829,3.51-8.932,5.653-14.536,5.653
			c-11.886,0-21.522-9.636-21.522-21.522c0-6.469,2.858-12.267,7.375-16.212c-4.127-4.977-6.609-11.368-6.609-18.339
			C191.844,310.827,204.716,297.956,220.594,297.956 M220.594,289.956c-20.264,0-36.75,16.486-36.75,36.75
			c0,6.206,1.582,12.295,4.535,17.681c-3.419,4.906-5.301,10.782-5.301,16.87c0,16.278,13.243,29.522,29.522,29.522
			c5.502,0,10.826-1.521,15.438-4.356c3.789,1.46,7.834,2.218,11.929,2.218c18.298,0,33.184-14.886,33.184-33.184
			c0-2.625-0.301-5.2-0.898-7.704c5.649-5.122,8.968-12.428,8.968-20.289c0-15.119-12.3-27.419-27.419-27.419
			c-2.366,0-4.72,0.309-6.995,0.908C239.956,293.978,230.543,289.956,220.594,289.956L220.594,289.956z"/>
	</g>
	<path class="st5" d="M205.588,304.205c5.044-3.783,10.275-5.128,14.386-6.234c-14.443-0.575-28.886,13.064-28.886,28.734
		c0,6.565,2.961,14.125,6.664,18.964c1.506-1.106,2.89-2.567,5.355-3.73c0,0-8.364-4.587-8.364-14.477
		C194.744,317.571,198.675,309.39,205.588,304.205z"/>
	<path class="st5" d="M192.77,369.633c2.983,9.978,13.314,13.145,19.83,13.145c5.604,0,10.707-2.143,14.536-5.653
		c0.413,0.245,0.836,0.474,1.264,0.695l-0.871-4.009c-1.009,1.261-6.178,6.809-16.897,6.557
		C205.686,380.251,198.905,376.206,192.77,369.633z"/>
	<path class="st5" d="M265.151,355.456c0-3.849-0.867-7.494-2.41-10.756c6.225-3.235,10.48-9.737,10.48-17.238
		c0-1.017-0.079-2.015-0.23-2.99c-1.074,8.563-3.604,12.661-6.058,15.262c-2.648,2.807-7.268,3.435-7.268,3.435
		c1.432,1.891,2.161,4.918,2.161,4.918c3.588,7.176-2.143,23-2.161,23.049C263.096,366.833,265.151,361.386,265.151,355.456z"/>
</g>
<g>
	<path class="st7" d="M349.959,417.378c-4.129-0.001-8.214-1.094-11.812-3.161c-2.252-1.293-4.24-2.912-5.937-4.829
		c-1.045,0.14-2.099,0.21-3.151,0.21c-4.127,0-8.208-1.091-11.801-3.156c-11.353-6.523-15.283-21.066-8.76-32.42
		c0.688-1.196,1.474-2.326,2.351-3.38c-3.16-6.919-2.838-14.977,1.016-21.685c4.225-7.354,12.121-11.921,20.608-11.921
		c4.13,0,8.214,1.093,11.812,3.161c2.547,1.463,4.797,3.388,6.634,5.658c2.408-0.794,4.943-1.206,7.475-1.206
		c4.127,0,8.209,1.092,11.805,3.157c11.353,6.524,15.283,21.067,8.76,32.421c-1.566,2.726-3.65,5.103-6.121,7.001
		c1.694,6.087,0.91,12.692-2.271,18.229C366.343,412.81,358.447,417.378,349.959,417.378
		C349.959,417.378,349.959,417.378,349.959,417.378z"/>
	<path class="st8" d="M332.474,341.036c3.336,0,6.719,0.847,9.819,2.628c3.081,1.77,5.499,4.247,7.178,7.107
		c2.762-1.391,5.823-2.122,8.923-2.122c3.334,0,6.714,0.846,9.812,2.626c9.456,5.433,12.717,17.503,7.284,26.959
		c-1.844,3.209-4.454,5.703-7.465,7.387c2.46,5.557,2.333,12.17-0.927,17.843c-3.652,6.356-10.301,9.912-17.14,9.912
		c-3.336,0-6.719-0.847-9.819-2.628c-2.578-1.481-4.691-3.458-6.297-5.737c-1.559,0.387-3.166,0.586-4.783,0.586
		c-3.333,0-6.711-0.844-9.809-2.624c-9.456-5.433-12.717-17.503-7.284-26.959c1.037-1.804,2.316-3.381,3.772-4.717
		c-3.756-5.985-4.171-13.794-0.405-20.349C318.986,344.593,325.635,341.036,332.474,341.036 M332.475,333.036
		C332.475,333.036,332.475,333.036,332.475,333.036c-9.915,0-19.141,5.336-24.077,13.927c-4.088,7.116-4.776,15.53-2.105,23.069
		c-0.448,0.646-0.869,1.311-1.262,1.996c-7.622,13.266-3.03,30.259,10.235,37.881c4.199,2.412,8.969,3.688,13.794,3.688
		c0.533,0,1.066-0.015,1.599-0.046c1.641,1.592,3.478,2.975,5.496,4.134c4.203,2.415,8.977,3.692,13.805,3.692
		c9.915,0,19.141-5.337,24.077-13.927c3.276-5.701,4.377-12.371,3.238-18.742c2.023-1.883,3.763-4.068,5.154-6.489
		c3.692-6.426,4.661-13.906,2.728-21.06s-6.537-13.129-12.963-16.821c-4.201-2.414-8.972-3.69-13.798-3.69
		c-2.065,0-4.131,0.235-6.148,0.692c-1.764-1.795-3.771-3.351-5.968-4.613C342.076,334.313,337.302,333.037,332.475,333.036
		L332.475,333.036L332.475,333.036z"/>
</g>
<g>
	<g>
		<path class="st7" d="M440.778,404.219c-14.073,0-25.522-11.449-25.522-25.521c0-6.119,2.201-11.992,6.133-16.587
			c-3.481-5.31-5.367-11.568-5.367-17.964c0-18.059,14.692-32.75,32.75-32.75c9.68,0,18.792,4.273,24.984,11.579
			c2.62-0.981,5.411-1.491,8.224-1.491c12.913,0,23.419,10.506,23.419,23.419c0,7.54-3.577,14.482-9.531,18.856
			c0.97,2.934,1.46,5.994,1.46,9.137c0,16.093-13.092,29.185-29.184,29.185c-4.283,0-8.502-0.942-12.355-2.744
			C451.446,402.502,446.212,404.219,440.778,404.219z"/>
		<path class="st8" d="M448.773,315.397c9.868,0,18.572,4.973,23.749,12.548c2.799-1.565,6.024-2.46,9.459-2.46
			c10.725,0,19.419,8.694,19.419,19.419c0,7.5-4.255,14.003-10.48,17.238c1.543,3.262,2.41,6.907,2.41,10.756
			c0,13.909-11.275,25.184-25.184,25.184c-4.687,0-9.073-1.285-12.831-3.515c-3.829,3.51-8.932,5.653-14.536,5.653
			c-11.886,0-21.522-9.636-21.522-21.522c0-6.469,2.858-12.267,7.375-16.212c-4.127-4.977-6.609-11.368-6.609-18.339
			C420.023,328.268,432.894,315.397,448.773,315.397 M448.773,307.397c-20.264,0-36.75,16.486-36.75,36.75
			c0,6.206,1.582,12.295,4.535,17.681c-3.419,4.906-5.301,10.782-5.301,16.87c0,16.278,13.243,29.522,29.522,29.522
			c5.502,0,10.826-1.521,15.438-4.356c3.789,1.46,7.834,2.218,11.929,2.218c18.298,0,33.184-14.886,33.184-33.184
			c0-2.625-0.301-5.2-0.898-7.704c5.649-5.122,8.968-12.428,8.968-20.289c0-15.119-12.3-27.419-27.419-27.419
			c-2.366,0-4.72,0.309-6.995,0.908C468.135,311.419,458.721,307.397,448.773,307.397L448.773,307.397z"/>
	</g>
	<path class="st5" d="M433.767,321.646c5.044-3.783,10.275-5.128,14.386-6.234c-14.443-0.575-28.886,13.064-28.886,28.734
		c0,6.565,2.961,14.125,6.664,18.964c1.506-1.106,2.89-2.567,5.355-3.73c0,0-8.364-4.587-8.364-14.477
		C422.922,335.013,426.853,326.831,433.767,321.646z"/>
	<path class="st5" d="M420.948,387.074c2.983,9.978,13.314,13.145,19.83,13.145c5.604,0,10.707-2.143,14.536-5.653
		c0.413,0.245,0.836,0.474,1.264,0.695l-0.871-4.009c-1.009,1.261-6.178,6.809-16.897,6.557
		C433.864,397.692,427.083,393.647,420.948,387.074z"/>
	<path class="st5" d="M493.33,372.897c0-3.849-0.867-7.494-2.41-10.756c6.225-3.235,10.48-9.737,10.48-17.238
		c0-1.017-0.079-2.015-0.23-2.99c-1.074,8.563-3.604,12.661-6.058,15.262c-2.648,2.807-7.268,3.435-7.268,3.435
		c1.432,1.891,2.161,4.918,2.161,4.918c3.588,7.176-2.143,23-2.161,23.049C491.275,384.274,493.33,378.827,493.33,372.897z"/>
</g>
<path class="st2" d="M482.962,418.745c0,0,15.979,19.581,55.791,19.581s51.24-22.418,42.204-36.044L482.962,418.745z"/>
<g>
	<g>
		<path class="st7" d="M317.456,381.206c-3.584,0-7.043-0.804-10.281-2.389c-6.772-3.315-11.436-9.581-12.747-16.852
			c-3.061-0.418-6.025-1.323-8.848-2.705c-7.001-3.428-12.249-9.376-14.776-16.75c-2.527-7.375-2.031-15.292,1.396-22.293
			c1.883-3.847,4.584-7.222,7.896-9.891c-0.933-5.293-0.174-10.749,2.215-15.63c4.32-8.824,13.109-14.305,22.939-14.305
			c3.905,0,7.675,0.876,11.205,2.604c5.495,2.69,9.802,7.249,12.2,12.799c1.368-0.173,2.745-0.261,4.121-0.261
			c5.01,0,9.846,1.124,14.374,3.34c7.857,3.846,13.746,10.522,16.582,18.797s2.28,17.16-1.566,25.017
			c-4.256,8.694-12.101,14.999-21.385,17.35c-0.27,2.783-1.039,5.515-2.276,8.041c-3.964,8.098-12.029,13.127-21.047,13.127
			C317.457,381.206,317.457,381.206,317.456,381.206z"/>
		<path class="st8" d="M305.25,284.392c3.176,0,6.402,0.706,9.447,2.197c5.81,2.844,9.761,7.96,11.318,13.752
			c2.203-0.532,4.472-0.807,6.761-0.807c4.241,0,8.549,0.943,12.616,2.933c14.261,6.981,20.163,24.201,13.182,38.463
			c-4.339,8.863-12.632,14.494-21.712,15.814c0.175,3.202-0.439,6.492-1.949,9.577c-3.37,6.885-10.274,10.885-17.456,10.885
			c-2.866,0-5.776-0.637-8.523-1.982c-6.737-3.298-10.706-9.978-10.874-16.992c-3.609-0.048-7.263-0.872-10.72-2.564
			c-12.492-6.115-17.662-21.2-11.547-33.692c2.061-4.21,5.143-7.584,8.798-9.979c-1.469-4.983-1.15-10.508,1.314-15.541
			C289.639,288.825,297.29,284.392,305.25,284.392 M305.25,276.392c-11.369,0-21.535,6.34-26.531,16.547
			c-2.419,4.942-3.394,10.393-2.875,15.781c-2.977,2.761-5.436,6.061-7.236,9.739c-8.045,16.434-1.22,36.35,15.214,44.395
			c2.358,1.154,4.803,2.016,7.315,2.581c2.117,7.325,7.22,13.519,14.28,16.975c3.791,1.856,7.842,2.797,12.041,2.797
			c10.559,0,20.001-5.889,24.641-15.368c1.04-2.125,1.798-4.375,2.259-6.682c9.276-3.087,17.028-9.774,21.402-18.709
			c8.909-18.2,1.351-40.256-16.85-49.165c-5.08-2.487-10.508-3.748-16.133-3.748c-0.582,0-1.163,0.014-1.744,0.042
			c-2.903-5.226-7.352-9.497-12.818-12.172C314.132,277.405,309.77,276.392,305.25,276.392L305.25,276.392z"/>
	</g>
	<path class="st5" d="M359.557,324.704c1.18,6.193,0.088,11.483-0.726,15.661c6.867-12.719,0.967-31.688-13.108-38.578
		c-5.896-2.886-13.988-3.551-19.963-2.352c0.331,1.839,1.035,3.724,0.996,6.45c0,0,7.797-5.495,16.68-1.147
		C352.32,309.087,357.94,316.215,359.557,324.704z"/>
	<path class="st5" d="M306.428,284.424c-10.273-1.708-17.66,6.179-20.525,12.032c-2.464,5.033-2.782,10.559-1.314,15.541
		c-0.402,0.263-0.793,0.543-1.18,0.829l3.984,0.981c-0.689-1.461-3.399-8.543,1.54-18.059
		C291.213,291.357,297.828,287.045,306.428,284.424z"/>
	<path class="st5" d="M287.338,355.668c3.457,1.692,7.111,2.516,10.72,2.564c0.168,7.013,4.138,13.694,10.874,16.992
		c0.913,0.447,1.845,0.815,2.787,1.108c-7.219-4.73-9.787-8.803-11.045-12.151c-1.357-3.612,0.111-8.038,0.111-8.038
		c-2.329,0.455-5.367-0.221-5.367-0.221c-8.023,0.068-19.716-12.037-19.752-12.075C278.023,348.82,282.012,353.061,287.338,355.668z
		"/>
</g>
<g>
	<g>
		<path class="st7" d="M441.255,332.839c-12.1,0-23.083-7.614-27.332-18.947c-1.503-4.011-2.102-8.292-1.767-12.532
			c-4.489-2.957-7.934-7.255-9.841-12.344c-2.393-6.383-2.157-13.316,0.665-19.522s7.891-10.941,14.275-13.334
			c2.881-1.08,5.891-1.627,8.945-1.627c2.974,0,5.94,0.53,8.739,1.549c3.75-5.123,8.947-9.085,14.937-11.332
			c3.703-1.388,7.569-2.091,11.491-2.091c13.578,0,25.903,8.545,30.671,21.263c3.397,9.063,2.593,19.097-2.073,27.459
			c1.838,2.108,3.296,4.542,4.283,7.177c2.196,5.857,1.979,12.219-0.61,17.914s-7.241,10.04-13.099,12.234
			c-2.645,0.992-5.408,1.495-8.211,1.495c0,0-0.001,0-0.001,0c-4.571,0-9.001-1.332-12.788-3.801
			c-2.407,1.938-5.101,3.473-8.044,4.575C448.196,332.212,444.751,332.839,441.255,332.839z"/>
		<path class="st8" d="M461.368,246.658c11.641,0.001,22.598,7.124,26.925,18.667c3.464,9.24,1.862,19.136-3.414,26.643
			c2.448,2.072,4.418,4.777,5.624,7.993c3.764,10.042-1.325,21.235-11.367,24.999c-2.244,0.841-4.545,1.24-6.807,1.24
			c-4.819,0-9.464-1.809-13.012-5.003c-2.513,2.59-5.622,4.681-9.226,6.032c-2.913,1.092-5.898,1.609-8.836,1.609
			c-10.197,0-19.795-6.24-23.586-16.351c-1.645-4.389-1.982-8.946-1.212-13.248c-4.631-2.354-8.429-6.379-10.396-11.627
			c-4.172-11.13,1.468-23.535,12.598-27.707c2.486-0.932,5.034-1.373,7.541-1.373c3.601,0,7.115,0.911,10.228,2.589
			c3.212-5.612,8.325-10.179,14.852-12.626C454.606,247.249,458.014,246.658,461.368,246.658 M461.368,238.658L461.368,238.658
			c-4.403,0-8.742,0.789-12.895,2.346c-5.811,2.178-10.957,5.797-14.964,10.453c-2.386-0.611-4.844-0.925-7.308-0.925
			c-3.535,0-7.017,0.633-10.349,1.882c-7.384,2.768-13.248,8.245-16.512,15.424c-3.264,7.178-3.537,15.198-0.769,22.582
			c1.931,5.152,5.224,9.604,9.497,12.927c-0.037,4.06,0.673,8.114,2.111,11.948c4.83,12.886,17.319,21.543,31.077,21.543
			c3.977,0,7.894-0.713,11.644-2.118c2.46-0.922,4.767-2.109,6.903-3.548c3.847,1.977,8.131,3.028,12.526,3.028
			c3.285,0,6.52-0.588,9.615-1.749c14.157-5.307,21.357-21.141,16.05-35.298c-0.831-2.216-1.945-4.311-3.306-6.231
			c4.125-8.864,4.588-19.09,1.096-28.405C490.435,248.247,476.604,238.659,461.368,238.658L461.368,238.658z"/>
	</g>
	<path class="st5" d="M477.174,253.467c5.313,3.395,8.408,7.821,10.887,11.282c-4.531-13.726-22.372-22.463-37.045-16.962
		c-6.147,2.304-12.187,7.731-15.419,12.897c1.565,1.022,3.418,1.805,5.373,3.705c0,0,1.359-9.441,10.621-12.913
		C460.851,248.004,469.892,248.814,477.174,253.467z"/>
	<path class="st5" d="M411.409,264.429c-8.296,6.295-7.635,17.08-5.348,23.183c1.967,5.248,5.765,9.273,10.396,11.627
		c-0.085,0.473-0.15,0.949-0.208,1.427l3.449-2.223c-1.535-0.502-8.544-3.395-12.071-13.52
		C406,280.251,407.408,272.481,411.409,264.429z"/>
	<path class="st5" d="M450.091,327.229c3.604-1.351,6.713-3.442,9.226-6.032c5.214,4.694,12.796,6.396,19.819,3.763
		c0.952-0.357,1.859-0.781,2.719-1.265c-8.396,2-13.12,1.07-16.417-0.315c-3.558-1.494-5.767-5.6-5.767-5.6
		c-1.268,2.005-3.846,3.75-3.846,3.75c-5.46,5.879-22.289,6.066-22.341,6.067C438.715,329.299,444.538,329.311,450.091,327.229z"/>
</g>
<g>
	<g>
		<path class="st7" d="M375.166,422.745c-14.073,0-25.521-11.449-25.521-25.522c0-6.12,2.2-11.992,6.133-16.587
			c-3.481-5.309-5.367-11.566-5.367-17.963c0-18.059,14.691-32.75,32.75-32.75c9.68,0,18.792,4.274,24.984,11.579
			c2.619-0.981,5.41-1.491,8.224-1.491c12.913,0,23.419,10.505,23.419,23.418c0,7.539-3.577,14.483-9.531,18.857
			c0.97,2.934,1.46,5.993,1.46,9.137c0,16.092-13.092,29.184-29.184,29.184c-4.283,0-8.503-0.942-12.355-2.743
			C385.834,421.028,380.6,422.745,375.166,422.745z"/>
		<path class="st8" d="M383.161,333.923c9.868,0,18.572,4.973,23.749,12.548c2.799-1.565,6.024-2.46,9.459-2.46
			c10.725,0,19.419,8.694,19.419,19.419c0,7.5-4.255,14.003-10.48,17.238c1.543,3.262,2.41,6.907,2.41,10.756
			c0,13.909-11.275,25.184-25.184,25.184c-4.687,0-9.073-1.285-12.831-3.515c-3.829,3.51-8.932,5.653-14.536,5.653
			c-11.886,0-21.522-9.636-21.522-21.522c0-6.469,2.858-12.267,7.375-16.212c-4.127-4.977-6.609-11.368-6.609-18.339
			C354.41,346.794,367.282,333.923,383.161,333.923 M383.161,325.923c-20.264,0-36.75,16.486-36.75,36.75
			c0,6.206,1.582,12.295,4.535,17.681c-3.419,4.906-5.301,10.782-5.301,16.87c0,16.278,13.243,29.522,29.522,29.522
			c5.502,0,10.826-1.521,15.438-4.356c3.789,1.46,7.834,2.218,11.929,2.218c18.298,0,33.184-14.886,33.184-33.184
			c0-2.625-0.301-5.2-0.898-7.704c5.649-5.122,8.968-12.428,8.968-20.289c0-15.119-12.3-27.419-27.419-27.419
			c-2.366,0-4.72,0.309-6.995,0.908C402.522,329.945,393.109,325.923,383.161,325.923L383.161,325.923z"/>
	</g>
	<path class="st5" d="M368.154,340.172c5.044-3.783,10.275-5.128,14.386-6.234c-14.443-0.575-28.886,13.064-28.886,28.734
		c0,6.565,2.961,14.125,6.664,18.964c1.506-1.106,2.89-2.567,5.355-3.73c0,0-8.364-4.587-8.364-14.477
		C357.31,353.538,361.241,345.357,368.154,340.172z"/>
	<path class="st5" d="M355.336,405.6c2.983,9.978,13.314,13.145,19.83,13.145c5.604,0,10.707-2.143,14.536-5.653
		c0.413,0.245,0.836,0.474,1.264,0.695l-0.871-4.009c-1.009,1.261-6.178,6.809-16.897,6.557
		C368.252,416.218,361.471,412.173,355.336,405.6z"/>
	<path class="st5" d="M427.717,391.423c0-3.849-0.867-7.494-2.41-10.756c6.225-3.235,10.48-9.737,10.48-17.238
		c0-1.017-0.079-2.015-0.23-2.99c-1.074,8.563-3.604,12.661-6.058,15.262c-2.648,2.807-7.268,3.435-7.268,3.435
		c1.432,1.891,2.161,4.918,2.161,4.918c3.588,7.176-2.143,23-2.161,23.049C425.662,402.8,427.717,397.353,427.717,391.423z"/>
</g>
<g>
	<g>
		<path class="st7" d="M264.969,429.19c-14.073,0-25.522-11.449-25.522-25.522c0-6.119,2.201-11.992,6.133-16.587
			c-3.48-5.31-5.367-11.566-5.367-17.963c0-18.059,14.691-32.751,32.75-32.751c9.68,0,18.792,4.274,24.985,11.58
			c2.619-0.982,5.41-1.492,8.223-1.492c12.913,0,23.419,10.506,23.419,23.419c0,7.539-3.577,14.482-9.53,18.857
			c0.97,2.933,1.46,5.993,1.46,9.137c0,16.092-13.092,29.184-29.184,29.184c-4.282,0-8.502-0.942-12.355-2.744
			C275.637,427.474,270.403,429.19,264.969,429.19z"/>
		<path class="st8" d="M272.963,340.368c9.868,0,18.572,4.973,23.749,12.548c2.799-1.565,6.024-2.46,9.459-2.46
			c10.725,0,19.419,8.694,19.419,19.419c0,7.5-4.255,14.003-10.48,17.238c1.543,3.262,2.41,6.907,2.41,10.756
			c0,13.909-11.275,25.184-25.184,25.184c-4.687,0-9.073-1.285-12.831-3.515c-3.829,3.51-8.932,5.653-14.536,5.653
			c-11.886,0-21.522-9.636-21.522-21.522c0-6.469,2.858-12.267,7.375-16.212c-4.127-4.977-6.609-11.368-6.609-18.339
			C244.213,353.239,257.085,340.368,272.963,340.368 M272.963,332.368c-20.264,0-36.75,16.486-36.75,36.75
			c0,6.206,1.582,12.295,4.535,17.681c-3.419,4.906-5.301,10.782-5.301,16.87c0,16.278,13.243,29.522,29.522,29.522
			c5.502,0,10.826-1.521,15.438-4.356c3.789,1.46,7.834,2.218,11.929,2.218c18.298,0,33.184-14.886,33.184-33.184
			c0-2.625-0.301-5.2-0.898-7.704c5.649-5.122,8.968-12.428,8.968-20.289c0-15.119-12.3-27.419-27.419-27.419
			c-2.366,0-4.72,0.309-6.995,0.908C292.325,336.39,282.912,332.368,272.963,332.368L272.963,332.368z"/>
	</g>
	<path class="st5" d="M257.957,346.617c5.044-3.783,10.275-5.128,14.386-6.234c-14.443-0.575-28.886,13.064-28.886,28.734
		c0,6.565,2.961,14.125,6.664,18.964c1.506-1.106,2.89-2.567,5.355-3.73c0,0-8.364-4.587-8.364-14.477
		C247.112,359.984,251.043,351.802,257.957,346.617z"/>
	<path class="st5" d="M245.138,412.045c2.983,9.978,13.314,13.145,19.83,13.145c5.604,0,10.707-2.143,14.536-5.653
		c0.413,0.245,0.836,0.474,1.264,0.695l-0.871-4.009c-1.009,1.261-6.178,6.809-16.897,6.557
		C258.055,422.663,251.274,418.618,245.138,412.045z"/>
	<path class="st5" d="M317.52,397.868c0-3.849-0.867-7.494-2.41-10.756c6.225-3.235,10.48-9.737,10.48-17.238
		c0-1.017-0.079-2.015-0.23-2.99c-1.074,8.563-3.604,12.661-6.058,15.262c-2.648,2.807-7.268,3.435-7.268,3.435
		c1.432,1.891,2.161,4.918,2.161,4.918c3.588,7.176-2.143,23-2.161,23.049C315.465,409.245,317.52,403.798,317.52,397.868z"/>
</g>
<g>
	<g>
		<path class="st7" d="M387.2,331.351c-1.141,0-2.289-0.115-3.414-0.342c-5.125-1.033-9.406-4.283-11.793-8.784
			c-0.534,0.041-1.069,0.062-1.604,0.062c-1.396,0-2.804-0.141-4.182-0.419c-11.422-2.302-18.841-13.466-16.54-24.887
			c0.563-2.794,1.684-5.437,3.282-7.769c-1.396-3.388-1.765-7.123-1.031-10.766c1.747-8.668,9.425-14.959,18.256-14.959
			c1.235,0,2.479,0.125,3.697,0.37c4.067,0.82,7.708,2.966,10.387,6.051c2.525-0.899,5.196-1.366,7.875-1.366
			c1.56,0,3.132,0.157,4.672,0.467c12.732,2.566,21.003,15.012,18.438,27.744c-1.316,6.533-5.321,12.144-10.95,15.53
			c0.189,1.747,0.111,3.522-0.238,5.256C402.441,325.542,395.353,331.351,387.2,331.351C387.2,331.351,387.2,331.351,387.2,331.351z
			"/>
		<path class="st8" d="M370.173,267.487c0.958,0,1.932,0.095,2.907,0.291c4.313,0.869,7.795,3.554,9.818,7.096
			c2.787-1.499,5.948-2.332,9.234-2.332c1.28,0,2.579,0.126,3.882,0.389c10.587,2.133,17.44,12.445,15.306,23.032
			c-1.326,6.579-5.811,11.715-11.557,14.149c0.667,2.077,0.831,4.347,0.37,6.637c-1.264,6.27-6.774,10.601-12.934,10.601
			c-0.865,0-1.743-0.085-2.623-0.263c-5.001-1.008-8.765-4.718-10.085-9.304c-1.325,0.328-2.7,0.502-4.102,0.502
			c-1.119,0-2.254-0.11-3.393-0.34c-9.274-1.869-15.277-10.902-13.408-20.175c0.63-3.125,2.076-5.877,4.068-8.083
			c-1.826-3.025-2.569-6.715-1.816-10.452C357.239,272.286,363.347,267.486,370.173,267.487 M370.174,259.487
			C370.174,259.487,370.174,259.487,370.174,259.487c-10.729,0-20.055,7.641-22.177,18.169c-0.75,3.72-0.552,7.518,0.537,11.079
			c-1.313,2.31-2.258,4.827-2.788,7.456c-2.737,13.583,6.087,26.861,19.67,29.598c1.441,0.29,2.908,0.455,4.372,0.49
			c3.069,4.412,7.75,7.552,13.209,8.652c1.385,0.279,2.799,0.42,4.203,0.42c10.051,0,18.789-7.158,20.776-17.021
			c0.264-1.31,0.402-2.641,0.416-3.971c5.51-4.019,9.396-9.986,10.772-16.816c1.454-7.215,0.011-14.565-4.063-20.694
			c-4.074-6.13-10.291-10.307-17.506-11.76c-1.8-0.363-3.637-0.547-5.462-0.547c-2.264,0-4.523,0.285-6.716,0.839
			c-2.997-2.726-6.702-4.628-10.756-5.445C373.183,259.638,371.673,259.487,370.174,259.487L370.174,259.487L370.174,259.487z"/>
	</g>
	<path class="st5" d="M409.17,285.118c1.845,3.871,2.039,7.54,2.224,10.429c2.324-9.553-4.83-21.015-15.278-23.121
		c-4.377-0.882-9.816,0.077-13.54,1.895c0.535,1.153,1.323,2.272,1.768,4.072c0,0,4.182-4.96,10.777-3.631
		C401.715,276.091,406.642,279.812,409.17,285.118z"/>
	<path class="st5" d="M367.268,267.78c-7.053,0.648-10.553,7.111-11.429,11.456c-0.753,3.737-0.009,7.427,1.816,10.452
		c-0.219,0.242-0.428,0.494-0.633,0.749l2.79-0.042c-0.705-0.842-3.71-5.034-2.102-12.147
		C358.453,274.965,362.061,270.988,367.268,267.78z"/>
	<path class="st5" d="M366.995,317.946c2.566,0.517,5.113,0.429,7.495-0.162c1.32,4.585,5.084,8.296,10.085,9.304
		c0.678,0.137,1.354,0.218,2.025,0.249c-5.565-1.867-7.958-4.104-9.362-6.09c-1.516-2.143-1.314-5.308-1.314-5.308
		c-1.454,0.701-3.569,0.78-3.569,0.78c-5.267,1.428-15.048-4.519-15.078-4.538C359.685,315.047,363.041,317.149,366.995,317.946z"/>
</g>
<g>
	<g>
		<path class="st7" d="M538.652,430.786c-9.175,0-18.252-2.43-26.249-7.024c-5.647-3.243-10.549-7.407-14.612-12.404
			c-3.031,0.533-6.104,0.802-9.176,0.802c-9.169,0-18.238-2.425-26.224-7.014c-25.233-14.498-33.966-46.822-19.469-72.056
			c1.965-3.419,4.292-6.592,6.944-9.473c-8.217-15.882-7.887-34.868,1.117-50.539c9.39-16.341,26.941-26.493,45.807-26.493
			c9.175,0,18.251,2.429,26.249,7.023c6.496,3.732,12.123,8.815,16.487,14.859c6.144-2.401,12.737-3.656,19.323-3.656
			c9.17,0,18.241,2.427,26.233,7.019c12.223,7.023,20.98,18.386,24.657,31.996c3.678,13.609,1.835,27.836-5.188,40.06
			c-3.949,6.875-9.382,12.751-15.869,17.206c4.8,14.251,3.317,30.077-4.224,43.201c-9.389,16.341-26.939,26.492-45.803,26.492
			C538.653,430.786,538.653,430.786,538.652,430.786z"/>
		<path class="st8" d="M496.789,252.086c7.988,0,16.086,2.027,23.509,6.293c7.376,4.238,13.166,10.169,17.187,17.015
			c6.612-3.33,13.94-5.081,21.364-5.081c7.982,0,16.074,2.025,23.493,6.288c22.64,13.008,30.448,41.906,17.44,64.546
			c-4.415,7.684-10.664,13.654-17.874,17.687c5.889,13.305,5.585,29.137-2.219,42.72c-8.743,15.217-24.662,23.733-41.037,23.733
			c-7.988,0-16.086-2.027-23.509-6.293c-6.171-3.546-11.231-8.278-15.077-13.737c-3.733,0.927-7.579,1.403-11.452,1.403
			c-7.98,0-16.068-2.022-23.484-6.283c-22.64-13.008-30.448-41.906-17.44-64.546c2.482-4.319,5.545-8.095,9.03-11.293
			c-8.993-14.331-9.986-33.027-0.969-48.72C464.495,260.601,480.414,252.085,496.789,252.086 M496.79,241.086
			c-20.828-0.001-40.208,11.208-50.575,29.252c-9.308,16.201-10.221,35.609-2.856,52.407c-1.927,2.387-3.667,4.927-5.205,7.605
			c-16.009,27.863-6.365,63.555,21.498,79.564c8.819,5.067,18.834,7.745,28.964,7.745c2.332,0,4.664-0.14,6.982-0.42
			c4.051,4.46,8.761,8.243,14.066,11.291c8.83,5.073,18.854,7.755,28.989,7.755c20.828,0,40.208-11.209,50.575-29.253
			c7.647-13.309,9.652-29.133,5.824-43.814c5.734-4.557,10.585-10.183,14.268-16.593c7.755-13.497,9.79-29.207,5.729-44.234
			c-4.06-15.028-13.73-27.575-27.227-35.33c-8.824-5.07-18.843-7.75-28.973-7.75c-5.889,0-11.781,0.908-17.412,2.661
			c-4.389-5.245-9.692-9.706-15.659-13.134C516.949,243.768,506.925,241.086,496.79,241.086L496.79,241.086z"/>
	</g>
	<polygon class="st5" points="558.529,397.842 575.637,340.15 516.778,336.393 491.229,370.678 521.3,395.36 	"/>
	<path class="st9" d="M542.979,340.697c0,0,0.225,2.291,0.22,2.874s-1.047,4.014-0.686,4.763c0.204,0.514,0.504,1.427,3.342,1.603
		c2.839,0.176-1.179-9.371-1.179-9.371L542.979,340.697z"/>
	<path class="st9" d="M500.484,360.316c0,0,2.438,13.217,4.609,13.247c2.171,0.031,13.323-7.286,17.427-9.221
		c3.995-1.883,10.416-2.967,16.159-2.619c5.743,0.348,12.145,9.121,12.145,9.121s-39.69,17.236-45.824,14.356
		C498.865,382.32,500.484,360.316,500.484,360.316z"/>
	<path class="st7" d="M582.342,276.6c-14.318-8.227-31.135-8.119-44.857-1.207c-4.021-6.846-9.81-12.777-17.187-17.015
		c-22.64-13.008-51.538-5.2-64.546,17.44c-9.017,15.693-8.024,34.389,0.969,48.72c-3.485,3.198-6.548,6.973-9.03,11.293
		c-13.008,22.64-5.2,51.538,17.44,64.546c11.015,6.329,23.508,7.717,34.935,4.88c3.846,5.459,8.906,10.191,15.077,13.737
		c22.64,13.008,51.538,5.2,64.546-17.44c7.804-13.583,8.108-29.415,2.219-42.72c7.21-4.033,13.459-10.003,17.874-17.687
		C612.79,318.507,604.982,289.608,582.342,276.6z M563.519,365.51c-2.535,5.397-7.651,6.557-14.378,2.032
		c-6.956-4.679-17.005-5.376-25.735-1.368c-10.461,4.803-12.278,11.969-16.755,11.134c-6.831-1.275-5.072-13.34-3.88-16.93
		c3.504-10.553,14.617-21.996,33.975-20.166c1.213,0.115,6.733,1.49,7.905,1.737c1.273,0.269-3.419,7.893,1.988,7.929
		c4.733,0.031-0.879-7.644,0.614-6.888C558.03,348.441,566.37,359.441,563.519,365.51z"/>
	<path class="st5" d="M585.552,371.759c0,0-3.001,34.109-27.84,42.608c-18.503,6.331-29.387,3.207-38.927-1.712
		c-6.612-3.41-21.112-20-21.112-20c-9.991,6.626-29.516,0.62-41.929-11.162c-12.004-11.394-14.435-28.226-8.025-45.71
		c-13.617,19.784-5.957,52.854,16.682,65.862c11.015,6.329,24.237,6.449,35.664,3.612c3.846,5.459,8.177,11.459,14.349,15.005
		c22.64,13.008,53.534,4.66,66.542-17.979C586.348,392.899,586.886,381.715,585.552,371.759L585.552,371.759z"/>
	<path class="st5" d="M454.484,275.09c-8.867,15.432-7.583,36.678,1.795,48.729c3.289-1.379,7.212-2.56,10.125-1.97
		c0,0-14.698-7.749-12.39-27.353c0,0-0.798-20.135,22.703-37.941l0,0C468.207,260.527,459.519,266.327,454.484,275.09z"/>
	<path class="st10" d="M572.738,319.461l6.573,6.27c0,0,3.84,3.273,5.504,0.036C586.479,322.531,572.738,319.461,572.738,319.461z"
		/>
	<path class="st5" d="M601.537,297.419c0,0.003,4.21,25.724-5.77,41.421c-9.98,15.698-24.617,17.897-24.617,17.897l11.869,4.311
		c11.137-5.708,18.124-19.682,19.677-24.973C606.252,323.957,608.524,312.723,601.537,297.419z"/>
	<polyline class="st11" points="482.962,325.609 512.702,325.881 493.06,343.971 	"/>
	<polyline class="st11" points="559.937,308.311 533.1,321.13 558.548,329.221 	"/>
	<path class="st10" d="M475.108,353.504l-2.21,8.928c0,0-1.427,4.84-3.668,2.45C466.989,362.491,475.108,353.504,475.108,353.504z"
		/>
	<path class="st5" d="M573.47,319.782c-0.388-0.035-0.446-0.576-0.072-0.687c5.924-1.757,20.733-5.393,18.832,2.816
		C590.062,331.272,582.204,320.56,573.47,319.782z"/>
	<path class="st10" d="M479.251,353.623l2.732,5.716c0,0,1.374,3.175-0.685,2.587S479.251,353.623,479.251,353.623z"/>
	<path class="st5" d="M475.899,352.462c0.148-0.17-0.044-0.418-0.241-0.308c-4.14,2.309-16.14,9.444-9.262,13.453
		C473.044,369.482,470.971,358.106,475.899,352.462z"/>
	<path class="st5" d="M479.052,355.945c-0.065-0.252-0.417-0.257-0.496-0.009c-1.037,3.254-3.461,12.282,1.892,11.403
		C485.943,366.437,480.014,359.687,479.052,355.945z"/>
	<path class="st5" d="M618.708,322.814c-0.397-0.421,0.072-1.079,0.597-0.833c8.305,3.885,28.323,14.436,18.127,21.674
		C625.804,351.909,627.634,332.28,618.708,322.814z"/>
	<path class="st5" d="M427.487,348.827c0.282-0.35-0.345-0.883-0.796-0.675c-7.142,3.294-24.056,12.207-12.233,18.006
		C427.94,372.77,421.156,356.704,427.487,348.827z"/>
</g>
<g>
	<g>
		<path class="st7" d="M205.205,413.247c-11.171,0-20.259-9.088-20.259-20.259c0-4.612,1.574-9.048,4.405-12.606
			c-2.485-4.034-3.826-8.715-3.826-13.495c0-14.182,11.538-25.72,25.719-25.72c7.374,0,14.328,3.157,19.176,8.582
			c1.899-0.633,3.898-0.961,5.911-0.961c10.294,0,18.67,8.375,18.67,18.67c0,5.771-2.629,11.104-7.04,14.606
			c0.626,2.11,0.943,4.3,0.943,6.542c0,12.696-10.329,23.025-23.025,23.025c-3.187,0-6.329-0.661-9.227-1.929
			C213.3,412.004,209.325,413.247,205.205,413.247z"/>
		<path class="st8" d="M211.244,345.167c7.455,0,14.03,3.757,17.942,9.48c2.115-1.182,4.551-1.859,7.146-1.859
			c8.102,0,14.67,6.568,14.67,14.67c0,5.666-3.214,10.579-7.917,13.022c1.166,2.464,1.821,5.218,1.821,8.126
			c0,10.507-8.518,19.025-19.025,19.025c-3.541,0-6.854-0.971-9.693-2.655c-2.893,2.652-6.748,4.271-10.981,4.271
			c-8.979,0-16.259-7.279-16.259-16.259c0-4.887,2.159-9.267,5.572-12.247c-3.118-3.76-4.993-8.588-4.993-13.854
			C189.525,354.891,199.249,345.167,211.244,345.167 M211.244,337.167c-16.387,0-29.719,13.332-29.719,29.719
			c0,4.616,1.083,9.153,3.115,13.241c-2.389,3.818-3.694,8.266-3.694,12.861c0,13.376,10.882,24.259,24.259,24.259
			c4.196,0,8.266-1.077,11.859-3.093c2.823,0.974,5.803,1.478,8.816,1.478c14.902,0,27.025-12.124,27.025-27.025
			c0-1.751-0.164-3.474-0.491-5.161c4.166-4.179,6.588-9.88,6.588-15.986c0-12.5-10.17-22.67-22.67-22.67
			c-1.578,0-3.149,0.166-4.685,0.491C226.184,340.121,218.911,337.167,211.244,337.167L211.244,337.167z"/>
	</g>
	<path class="st5" d="M199.908,349.888c3.81-2.858,7.762-3.874,10.868-4.71c-10.911-0.435-21.822,9.87-21.822,21.708
		c0,4.959,2.237,10.671,5.035,14.327c1.138-0.836,2.183-1.939,4.046-2.818c0,0-6.318-3.465-6.318-10.937
		C191.715,359.986,194.685,353.806,199.908,349.888z"/>
	<path class="st5" d="M190.224,399.317c2.254,7.538,10.058,9.93,14.981,9.93c4.234,0,8.088-1.619,10.981-4.271
		c0.312,0.185,0.632,0.358,0.955,0.525l-0.658-3.029c-0.762,0.953-4.667,5.144-12.765,4.954
		C199.981,407.338,194.859,404.282,190.224,399.317z"/>
	<path class="st5" d="M244.905,388.606c0-2.907-0.655-5.661-1.821-8.126c4.703-2.444,7.917-7.356,7.917-13.022
		c0-0.768-0.06-1.523-0.173-2.259c-0.812,6.469-2.722,9.565-4.576,11.53c-2,2.121-5.491,2.595-5.491,2.595
		c1.082,1.429,1.633,3.715,1.633,3.715c2.711,5.421-1.619,17.376-1.632,17.413C243.353,397.201,244.905,393.086,244.905,388.606z"/>
</g>
<path class="st12" d="M589.922,245.388c-1.802,0-3.537-0.551-4.76-1.512c-1.203-0.945-1.782-2.185-1.63-3.492l2.662-22.976h-45.869
	c-6.948,0-12.6-4.086-12.6-9.109V43.43c0-5.023,5.652-9.109,12.6-9.109H858.64c6.948,0,12.6,4.086,12.6,9.109v163.377
	c0,4.993-5.619,9.079-12.526,9.109l-227.317,0.976l-36.965,27.114C593.215,244.897,591.614,245.388,589.922,245.388z"/>
<path class="st13" d="M585.853,240.525l2.873-24.8h-48.401c-5.673,0-10.272-3.324-10.272-7.425V43.43
	c0-4.101,4.599-7.425,10.272-7.425h318.314c5.673,0,10.272,3.324,10.272,7.425v163.377c0,4.084-4.562,7.401-10.211,7.425
	l-228.284,0.98l-37.644,27.612C590.114,244.775,585.537,243.254,585.853,240.525z"/>
<rect x="553.339" y="75.461" class="st14" width="287.661" height="158.405"/>
<text transform="matrix(1.3833 0 0 1 582.1468 93.1942)"><tspan x="0" y="0" class="st15 st16">We’re sorry, </tspan><tspan x="-6.929" y="33.667" class="st15 st16">but something </tspan><tspan x="6.93" y="67.334" class="st15 st16">went wrong.</tspan></text>
</svg>
